<?xml version="1.0" encoding="utf-8"?>
<!-- Generator: Adobe Illustrator 24.0.1, SVG Export Plug-In . SVG Version: 6.00 Build 0)  -->
<svg version="1.1" id="Calque_1" xmlns="http://www.w3.org/2000/svg" xmlns:xlink="http://www.w3.org/1999/xlink" x="0px" y="0px"
	 viewBox="0 0 1132.6 316.5" style="enable-background:new 0 0 1132.6 316.5; " xml:space="preserve">
<style type="text/css">

	<!-- .st0{fill:#141414;}
	.st1{fill:#2E2D2D;}
	.st2{fill:#0C0C0C;}
	.st3{fill:#181818;}
	.st4{fill:#191919;}
	.st5{fill:#1C1C1B;}
	.st6{fill:#272726;}
	.st7{fill:#0D0D0D;} -->
	.st0{fill:#FFFFFF;}
	.st1{fill:#FFFFFF;}
	.st2{fill:#FFFFFF;}
	.st3{fill:#FFFFFF;}
	.st4{fill:#FFFFFF;}
	.st5{fill:#FFFFFF;}
	.st6{fill:#FFFFFF;}
	.st7{fill:#FFFFFF;}
</style>
<g>
	<path class="st0" d="M457.3,313.5c3.7-7.8,10.4-10.3,15.9-13.7c19.7-12,34.6-28.7,47.6-47.4c4.9-7.1,12.8-15.3,8.9-23.4
		c-4.1-8.6-14.7-2.5-22.4-2.8c-13.6-0.5-25.7-4.7-30.3-17.9c-4.8-13.8-1.8-27.6,10.5-37.2c15.2-11.9,33.1-17.5,52-19.8
		c5.7-0.7,12.5-0.6,13,6.9c0.5,6.7-6.4,6.3-11,7.6c-14,4-26.9,10.2-38.1,19.6c-4.5,3.8-7.6,8.6-5.5,14.8c2.2,6.7,8.2,4.5,12.8,4.5
		c16,0.2,33.3,0.5,41.4,16.3c8.5,16.6-4.8,29.6-13.6,42.1c-14.3,20.2-32.8,36.1-54.6,47.9C475.6,315.7,467.1,319.3,457.3,313.5z"/>
	<path class="st1" d="M337,256.4c-8.3-2.8-19.5-4.8-18.8-16.5c0.6-10.6,12.1-10.3,19.3-10.1c10.5,0.4,14.2,9.3,14.1,18.7
		C351.3,258.1,343.6,256.1,337,256.4z"/>
	<path class="st2" d="M940.7,177.8C940.7,177.7,940.5,178.1,940.7,177.8L940.7,177.8z"/>
	<path class="st3" d="M626.2,103c-36.4-1.8-72.2,11.5-111.4,0C554.2,103,590.2,103,626.2,103z"/>
	<path class="st2" d="M1109.2,186.5c-9.6,1.6-16.2-1-17.1-11.8c-1.2-13.9-7.5-24.3-21.6-27.3c-15.4-3.3-28.7,1.4-38.3,14.3
		c-7.2,9.5-14.3,19.2-19.2,30.1c-13.2,29.5-40.6,36.1-69.7,46.3c3.9-20.4,15.7-32.9,23.8-47.3c5.7-10.1,13.3-21.8-0.6-29.2
		c-13.7-7.3-19.6,5.6-25.2,15.6c-0.2,0.4-0.4,0.6-0.4,0.8c0,0,0,0.2-0.4,1c-10.6,25.4-27.8,45.4-50.7,60.9c-0.2-3.7,1.4-6.5,2.8-9.3
		c34.9-66.8,62.9-136.9,96.2-204.4c3.9-8,11.4-16,4.2-26c-7.6,0-15.1,0-22.7,0c0.1,1.9,0.7,4,0.1,5.6
		c-22.2,54.5-46.4,108.1-71.5,161.3c-1.9,4.1-4.3,7.8-10,5.5c-31.7-12.3-48.6,7.6-62.2,30.6c-7.3,12.4-16.5,19.7-29.8,23.4
		c-10.3,2.9-20.5,5.8-30.5,9.6c-13.9,5.2-17.3-2-16-13.4c1.8-16.1,12.8-28.2,20.6-41.5c3.4-5.8,11.2-10.3,3.3-17.1
		c-7.1-6.1-15.2-5.3-22.1,1.2c-11.4,10.8-22.4,22-34,32.6c-12,11-22.4,24-39.9,32.5c4.4-23.7,15.4-41.3,24.2-59.8
		c2.3-4.8,10.6-10.4,1.1-15.5c-7.1-3.8-13-1.5-16.8,6.4c-10.2,20.8-24.3,40.7-27.5,63.5c-2.6,18.7-12.3,25.7-27.6,29.6
		c-11.3,2.9-23.9,10-34.1,0.7c-10.6-9.6-5-23.5-3.9-35.8c0.2-2.4,1.5-4.8,2.4-7.1c8.7-20.8,16.6-41.9,26.3-62.2
		c11.7-24.6,26.8-40.1,59.6-39.1c49.4,1.4,99.1-3.1,148.4-9.6c-3.1-11.4-13.5-1.6-18.8-6.5c-50,0-100,0-152.8,0
		c8.1-16.4,17.6-27.8,26.8-39.4c2.9-3.7,7.5-6.8,3.5-13c-3.4-5.2-7.9-5.2-13-5.2c-7.8,0-12.9,4-16.6,10.4
		c-6.6,11.4-13.8,22.4-19.7,34.2c-5.4,10.7-12.3,15.5-25,15.1c-32-0.9-64.1-0.4-96.2-0.2c-6.3,0-13.4-1.5-19.4,5.4
		c11.4,8.6,23.5,11.1,36.1,11.2c20.1,0.2,40.2-0.2,60.3-0.4c25.6-0.2,28.6,4.3,14.8,26.3c-10.4,16.6-19.4,33.7-27.1,51.5
		c-6,13.8-11.9,28.1-12.3,43.1c-0.5,17.5,8,31.6,24.3,39.3c16.7,7.9,42.5,2.9,56.5-9.7c3.1-2.8,4.4-11.7,10.5-7.1
		c16.9,12.7,26.6-0.4,36.7-9.7c10-9.1,18.7-19.6,28.9-30.4c3.5,48.7,5.7,49.5,76.6,29c-2.1,31.1,9,38.6,37,24.9
		c5.5-2.7,11.1-7.4,17.2-2c18.3,16.2,33.3,8,47.4-6.2c3.1-3.1,4.4-6.7,9.3-0.8c8.6,10.5,20,8.9,30.8,3c17.6-9.7,35.1-19.9,54.2-30.9
		c-5.3,13.4-5.2,24.3,6.3,31.6c11.3,7.1,21.4,3,30.8-5.1c12.3-10.7,25-21.1,32.3-36.3c3.4-7.1,9-10.2,17-12.8
		c15.2-5,32.9-2.5,45.8-14.6c0-1.3,0-2.5,0-3.8C1126.9,182.1,1117.8,185.1,1109.2,186.5z M875,196.9c-3.4,28.1-22.3,44.3-46,56.9
		c5.7-24.9,18.9-45.5,34.7-64.7c2-2.4,4.5-5.2,7.7-3.7C876.4,187.7,875.5,192.8,875,196.9z M1054.5,211.1
		c-8,13.9-16.7,27.7-35.3,33.6c1.7-17.8,8.3-31.9,15.8-45.5c2.3-4.1,4.4-13.7,11.1-8.7C1051.6,194.6,1059.7,201.9,1054.5,211.1z
		 M1067.1,189c-2.2,1.5-5.4-0.6-5.3-3c0.4-7.3,2.4-14.1,10.9-17.8C1074.1,176.9,1074.1,184.1,1067.1,189z"/>
	<ellipse class="st4" cx="683.4" cy="103.7" rx="21.2" ry="1.3"/>
	<path class="st5" d="M1113.1,199.8c-3.4-0.3-9.5-0.3-9.6-1c-0.6-4.7,3.5-2.1,5.6-2.5c1.5-0.3,3.2,0.6,4.9,1
		C1113.7,198.1,1113.4,199,1113.1,199.8z"/>
	<path class="st6" d="M990.1,133.1c-4.3,10.5-9.6,19.5-21.6,21c-5.8,0.7-7.9-4.1-7-8.5c1.9-9.4,2.4-20.7,15.2-22.3
		C983.5,122.4,988.3,126.2,990.1,133.1z"/>
	<path class="st7" d="M302.3,182.8c-25.3-0.2-46.2-24.4-75.8-9.5c7.2-29.3,21.2-51.1,31.5-74.3c14.6-33,34.5-63.7,44.1-99
		c-6.3,0-12.6,0-18.9,0c1.7,5.5-1.8,9.7-3.9,14.1C247,81.3,217.2,149.6,187,217.8c-12.2,27.7-41.7,40.2-65.1,57.8
		c-1-4.5-0.3-7.4,0.9-10.1c13.8-30.9,27.9-61.6,41.4-92.6c2.6-6,6.6-13.7,0.1-19.2c-6.9-5.9-14-1.6-20.7,2.5
		c-13.5,8.3-24.5,19.5-35.5,30.6c-3.6,3.6-7.5,10-13.8,3.2c-10.4-11.2-21-8-31.7-0.6c-4.6,3.2-7.4,5.6-10.6-2.6
		c-4.8-12.5-13.5-12.7-20.1-1c-4.2,7.6-5.9,16.5-9.8,24.3c-6.2,12.4-8,27.6-22.1,35c0,6.3,0,12.6,0,18.9c11.6,8.1,19.1,4.3,25.5-7.4
		c6-10.9,9-24.4,22.5-30.3c3.2,7-0.9,11.9-2.6,17c-3,8.6-0.2,15.1,7,19.2c7.2,4.1,11.6-1.5,15.7-6.4c6-7.2,11.8-14.7,17.8-21.9
		c15.1-17.8,29.8-36.2,49.8-49.6c3.3,5.5-0.1,8.5-1.3,11.8c-10,27.7-24.2,53.6-36.8,80.2c-5,10.6-5.4,21.1,4.8,28.8
		c10.7,7.9,19.3,0.4,26.6-6.2c12.5-11.4,24-23.9,36.2-35.7c3.4-3.3,6.1-9.4,11.9-7.7c13.9,4.1,16.8-6,21.9-14.8
		c10.4-17.8,18.7-37.1,33.7-51.8c7.7-7.5,17.2-8.8,25.2-0.7c9.4,9.5-1.3,14.2-6.4,19.4c-16.1,16.6-34,31.7-44.5,53
		c-3.7,7.5-6.9,15.5,0.4,22.5c7.2,7,15.1,4,22.5-0.1c28.2-15.6,48.5-37.8,55.1-70c2.4-11.6,7.2-16.7,19.2-18.8
		c10.1-1.7,22,0,32.1-10C323.5,183.8,312.9,182.9,302.3,182.8z M245.9,245.3c-4.2,6.6-8.1,13.6-18.9,16.5c2.6-10,7.6-16.2,14.1-21.5
		c3.3-6,7.8-10.7,15.4-14.1C257.6,235.9,251.4,240.5,245.9,245.3z"/>
</g>
</svg>
